<?xml version="1.0" standalone="no"?>
<!DOCTYPE svg PUBLIC "-//W3C//DTD SVG 20010904//EN"
 "http://www.w3.org/TR/2001/REC-SVG-20010904/DTD/svg10.dtd">
<svg version="1.0" xmlns="http://www.w3.org/2000/svg"
 width="1024.000000pt" height="845.000000pt" viewBox="0 0 1024.000000 845.000000"
 preserveAspectRatio="xMidYMid meet">
<metadata>
Created by potrace 1.16, written by Peter Selinger 2001-2019
</metadata>
<g transform="translate(0.000000,845.000000) scale(0.100000,-0.100000)"
fill="#000000" stroke="none">
<path d="M3818 8119 c-31 -5 -90 -20 -130 -34 -40 -14 -99 -32 -131 -40 -32
-8 -90 -30 -130 -48 -40 -19 -110 -49 -157 -67 -47 -18 -98 -43 -115 -55 -16
-12 -67 -36 -112 -54 -46 -18 -83 -37 -83 -42 0 -5 -21 -15 -46 -21 -34 -10
-57 -25 -86 -58 -33 -38 -46 -45 -77 -46 -21 0 -51 -10 -67 -21 -16 -11 -58
-39 -94 -63 -76 -49 -110 -79 -165 -145 -22 -26 -66 -78 -98 -114 -81 -92
-192 -259 -238 -357 -22 -45 -39 -86 -39 -91 0 -4 -11 -20 -24 -34 -22 -24
-46 -62 -46 -73 0 -3 9 -6 19 -6 18 0 71 52 71 69 0 22 224 371 279 434 14 17
42 49 61 71 20 23 56 65 80 94 45 55 104 103 199 161 46 28 58 31 78 22 33
-15 55 -2 92 59 24 39 37 50 56 50 14 0 48 16 76 35 28 19 58 35 67 35 8 0 61
22 116 49 129 63 323 140 401 158 33 7 85 23 115 34 81 29 268 46 320 29 36
-12 48 -11 93 3 49 16 54 16 92 -2 22 -11 69 -22 105 -25 36 -3 105 -10 154
-16 49 -6 137 -13 196 -15 88 -4 129 -11 222 -41 247 -79 378 -172 627 -445
130 -142 135 -149 232 -307 42 -70 86 -141 97 -158 22 -36 82 -180 82 -199 0
-6 9 -20 19 -29 11 -10 21 -27 23 -39 2 -11 9 -22 16 -25 17 -5 16 65 -3 152
-13 63 -88 231 -133 297 -9 14 -35 54 -57 88 -37 58 -75 112 -142 201 -14 19
-100 108 -190 197 -118 118 -181 172 -230 200 -37 21 -77 43 -88 50 -117 69
-302 118 -500 133 -83 6 -174 15 -204 20 -30 6 -78 10 -107 10 -34 0 -54 5
-57 14 -4 10 -44 13 -194 13 -103 0 -214 -4 -245 -8z"/>
<path d="M4540 7776 c0 -14 6 -31 14 -38 22 -22 54 -94 61 -139 4 -22 13 -43
21 -46 8 -3 14 -14 14 -24 0 -10 5 -19 11 -19 15 0 3 88 -22 167 -30 93 -99
162 -99 99z"/>
<path d="M4900 7651 c0 -11 10 -39 23 -63 12 -24 40 -98 62 -165 22 -68 45
-123 51 -123 18 0 34 23 34 52 0 41 -82 241 -116 282 -33 39 -54 46 -54 17z"/>
<path d="M4417 7624 c-7 -7 2 -34 19 -54 18 -22 94 -177 94 -193 0 -24 28 -53
39 -42 12 12 -14 119 -48 196 -30 68 -82 115 -104 93z"/>
<path d="M5210 7522 c0 -17 43 -128 70 -182 30 -59 55 -79 74 -60 10 10 -13
63 -89 197 -26 46 -55 70 -55 45z"/>
<path d="M4670 7444 c0 -19 34 -105 46 -115 8 -6 14 -17 14 -25 0 -19 39 -39
52 -26 11 11 -13 59 -63 130 -27 37 -49 54 -49 36z"/>
<path d="M4517 7293 c-16 -16 -6 -145 22 -275 l8 -38 -117 0 -117 0 -13 91
c-7 50 -20 97 -27 105 -12 12 -63 21 -63 11 0 -2 13 -30 29 -63 16 -33 29 -77
30 -100 1 -41 0 -42 -42 -52 -23 -6 -87 -16 -142 -23 -61 -7 -120 -20 -150
-34 -27 -13 -77 -30 -110 -39 -33 -9 -80 -23 -105 -32 -25 -9 -71 -22 -103
-29 -32 -7 -73 -25 -92 -39 -18 -14 -39 -26 -46 -26 -7 0 -60 -23 -118 -51
-147 -70 -183 -89 -207 -110 -21 -19 -70 -27 -59 -10 9 15 -13 23 -34 12 -28
-15 -40 5 -62 101 -27 119 -52 199 -64 201 -39 8 15 -288 63 -344 29 -36 23
-57 -25 -89 -21 -13 -56 -39 -77 -57 -49 -41 -59 -41 -51 -3 8 37 -11 41 -27
5 -26 -57 -67 -13 -100 108 -17 66 -33 53 -32 -25 2 -78 26 -134 66 -157 15
-9 27 -19 25 -23 -10 -27 -160 -163 -181 -163 -10 0 -73 176 -92 258 -13 54
-28 51 -32 -6 -4 -57 29 -193 62 -258 l23 -46 -38 -34 c-26 -22 -44 -51 -55
-84 -9 -27 -25 -59 -35 -70 -18 -20 -139 -243 -139 -256 0 -3 -7 -12 -15 -19
-8 -7 -15 -23 -15 -35 0 -28 -11 -36 -75 -60 -69 -25 -109 -53 -192 -137 -40
-40 -74 -70 -76 -68 -8 12 -81 232 -99 300 -16 63 -19 98 -14 220 10 310 67
612 126 675 17 19 22 36 23 94 0 39 -2 73 -5 77 -11 10 -37 -40 -44 -86 -4
-25 -18 -69 -31 -99 -46 -100 -54 -135 -89 -381 -40 -288 -43 -413 -14 -534
31 -127 77 -249 102 -268 22 -16 22 -17 -144 -178 -115 -111 -185 -188 -227
-249 -33 -48 -73 -96 -88 -106 -43 -29 -52 -40 -89 -116 -26 -54 -41 -72 -63
-80 -23 -8 -35 -24 -55 -72 -14 -34 -28 -76 -31 -94 -4 -19 -28 -54 -64 -92
-53 -56 -124 -174 -156 -261 -8 -19 -30 -73 -50 -120 -41 -99 -61 -177 -76
-310 -23 -204 -22 -240 5 -349 30 -118 44 -149 95 -211 21 -25 46 -58 56 -75
32 -50 67 -84 145 -137 41 -28 90 -64 109 -80 80 -70 450 -213 681 -264 63
-14 144 -32 180 -41 127 -28 191 -33 293 -21 78 10 106 9 140 -1 88 -28 132
-26 192 8 30 17 64 31 76 31 12 0 41 -16 65 -35 52 -43 99 -47 132 -12 38 40
27 58 -22 36 -32 -15 -64 -6 -111 31 -21 16 -46 30 -57 30 -10 0 -55 -14 -100
-31 l-81 -32 -53 17 c-43 14 -85 16 -206 14 -131 -3 -167 0 -253 20 -55 13
-140 32 -190 43 -127 28 -256 72 -433 145 -126 52 -177 80 -292 160 -117 80
-147 107 -182 158 -23 33 -50 72 -60 86 -22 30 -64 159 -79 245 -10 49 -8 95
5 231 18 179 32 245 73 334 14 30 40 89 57 131 51 122 113 217 156 239 37 19
52 44 64 105 14 68 31 115 42 115 26 0 66 46 99 115 20 42 45 79 57 86 34 18
70 60 122 142 26 41 67 89 94 110 26 20 72 65 102 100 30 35 75 79 100 98 24
19 94 84 155 144 109 108 178 155 226 155 17 0 47 25 104 84 68 71 167 146
193 146 4 0 36 25 70 55 40 35 72 55 88 55 23 0 74 42 74 61 0 4 24 19 53 33
28 14 124 64 212 111 88 47 182 96 208 110 26 14 80 37 119 51 68 25 73 25
105 10 41 -19 58 -12 97 39 15 19 38 43 51 51 23 15 28 14 68 -5 58 -28 65
-27 107 14 25 24 50 37 83 44 27 5 59 19 73 32 20 19 34 23 78 21 42 -2 68 5
129 33 42 19 85 35 97 35 12 0 54 11 93 24 101 34 148 46 220 55 34 5 112 18
172 30 133 26 275 38 540 46 158 5 205 10 225 23 69 44 321 46 445 4 33 -11
98 -23 145 -26 52 -4 159 -26 275 -56 236 -62 245 -64 245 -31 0 20 -60 43
-205 76 -38 9 -93 23 -122 31 -28 8 -89 19 -135 25 -113 14 -165 24 -215 43
-32 12 -82 16 -200 17 -87 0 -169 -1 -183 -3 -23 -3 -25 0 -26 41 -1 24 -5 62
-8 84 -10 60 -56 197 -67 197 -12 0 -12 -65 1 -110 12 -46 28 -210 20 -210 -4
0 -12 11 -18 25 -6 14 -29 32 -49 41 -108 45 -107 45 -116 104 -12 86 -47 190
-65 190 -15 0 -15 -10 4 -157 6 -48 5 -53 -12 -53 -10 1 -30 7 -44 15 -14 8
-37 14 -51 15 -34 0 -44 13 -59 80 -31 141 -35 155 -52 158 -15 3 -16 -4 -11
-55 3 -32 8 -82 12 -110 7 -46 6 -53 -11 -59 -19 -6 -121 12 -148 26 -8 4 -44
10 -80 13 -36 3 -86 9 -112 13 -52 7 -52 7 -63 109 -6 43 -26 142 -41 198 -6
18 -16 22 -27 10z"/>
<path d="M2809 7268 c-24 -44 9 -286 40 -296 10 -3 12 3 8 24 -3 16 -10 58
-17 94 -7 36 -9 95 -7 133 6 68 -3 85 -24 45z"/>
<path d="M2616 7232 c-19 -41 -18 -113 0 -119 7 -2 12 13 12 42 1 26 8 60 17
77 18 38 18 38 2 38 -8 0 -22 -17 -31 -38z"/>
<path d="M4789 7208 c0 -2 -2 -41 -5 -87 -4 -87 5 -112 33 -89 24 20 8 178
-17 178 -6 0 -10 -1 -11 -2z"/>
<path d="M5500 7104 c-13 -34 -13 -33 14 -68 23 -30 40 -73 51 -128 9 -48 22
-30 29 41 6 74 0 103 -36 151 -27 37 -45 38 -58 4z"/>
<path d="M2677 7004 c-11 -11 -7 -95 6 -134 8 -23 25 -41 51 -56 l39 -22 29
21 c35 26 36 41 3 33 -14 -4 -34 -2 -44 3 -19 11 -51 78 -51 109 0 23 -23 55
-33 46z"/>
<path d="M2540 6792 c0 -73 3 -92 18 -105 21 -19 52 -23 52 -7 0 6 -7 24 -15
39 -8 16 -18 57 -22 92 -5 35 -14 64 -20 67 -10 3 -13 -19 -13 -86z"/>
<path d="M6945 6609 c-33 -11 -68 -28 -78 -38 -20 -20 -89 -209 -111 -306 -25
-107 -30 -249 -12 -360 16 -95 46 -216 66 -260 5 -11 17 -45 28 -75 11 -30 31
-80 45 -110 61 -137 147 -454 177 -654 19 -129 19 -267 0 -371 -6 -33 -13 -76
-16 -95 -6 -31 -13 -38 -73 -67 -63 -31 -137 -71 -263 -142 -62 -35 -69 -33
-37 14 25 38 64 113 73 143 12 38 -18 26 -44 -19 -14 -23 -45 -67 -69 -98 -24
-31 -49 -62 -54 -69 -12 -16 10 -35 31 -27 20 7 14 -4 -30 -57 -94 -111 -157
-242 -192 -401 -4 -15 -30 -54 -59 -85 -29 -31 -62 -69 -73 -84 -12 -15 -32
-32 -45 -38 -14 -6 -30 -24 -38 -41 -7 -16 -26 -41 -43 -56 -17 -16 -42 -38
-56 -51 l-24 -23 4 38 c3 21 19 105 36 187 18 82 32 172 32 201 0 94 8 113 56
134 36 16 45 26 55 63 20 66 48 78 69 28 26 -62 -15 -177 -99 -277 -42 -51
-48 -63 -32 -63 10 0 44 16 74 36 42 27 62 49 85 92 79 149 56 282 -50 300
-43 8 -43 8 -40 47 2 23 11 45 20 52 27 20 82 77 82 86 0 5 -19 7 -42 5 -24
-1 -45 0 -47 5 -8 18 12 148 23 144 6 -1 24 -30 40 -63 16 -32 34 -68 39 -79
6 -11 17 -33 25 -48 22 -43 36 -28 33 34 -3 73 -48 164 -102 208 -31 26 -45
32 -57 25 -27 -18 -41 -96 -48 -264 -4 -111 -11 -175 -21 -197 -8 -17 -12 -40
-9 -50 7 -23 -17 -59 -32 -49 -8 5 -12 59 -12 173 0 141 4 182 25 279 28 125
59 204 79 204 14 0 69 -39 123 -87 43 -38 60 -77 77 -172 7 -45 19 -87 25 -94
6 -7 15 -37 22 -65 19 -91 33 -63 25 53 -13 199 -36 270 -105 325 -41 34 -46
43 -65 128 -14 59 -10 62 45 35 19 -10 79 -36 134 -58 93 -39 100 -43 98 -68
-2 -33 18 -36 47 -7 11 11 26 17 35 14 22 -9 30 23 12 44 -14 15 -15 34 -6
146 5 71 7 131 4 134 -3 3 -12 -3 -20 -14 -13 -18 -14 -18 -15 -1 -1 48 -59
21 -61 -27 0 -12 -9 -39 -19 -61 l-18 -40 -116 117 c-109 111 -206 236 -206
267 0 15 7 14 135 -15 85 -20 216 -24 277 -11 l36 9 0 -47 c-1 -30 4 -52 15
-62 9 -9 19 -15 21 -12 3 3 7 48 8 100 3 112 -8 139 -47 113 -22 -14 -24 -13
-48 28 -13 24 -28 54 -32 68 -10 32 -56 99 -86 126 -35 30 -128 74 -145 67
-33 -12 -9 -44 51 -68 63 -25 101 -61 135 -128 24 -45 25 -57 5 -57 -21 0
-135 57 -159 79 -12 11 -41 29 -66 40 -25 12 -83 58 -130 102 -47 44 -104 93
-127 109 -23 17 -43 34 -45 39 -5 14 -104 89 -148 112 -43 22 -52 44 -22 53
23 8 36 20 194 173 89 87 133 123 150 123 12 0 59 -18 103 -40 88 -44 115 -49
115 -22 -1 19 -63 62 -130 88 -25 9 -53 26 -63 36 -22 23 -18 23 -118 -11
-180 -60 -412 -101 -575 -101 -95 1 -270 21 -306 35 -25 10 -23 19 17 53 19
17 37 42 41 56 3 15 10 29 15 32 5 3 9 13 9 23 0 19 55 67 97 86 12 6 37 22
55 37 18 15 63 50 99 77 70 52 129 133 132 180 3 35 -26 39 -58 7 -25 -25
-156 -119 -199 -143 -11 -6 -46 -21 -76 -34 -30 -12 -83 -41 -118 -65 -88 -61
-119 -76 -177 -83 -38 -5 -50 -10 -49 -23 1 -11 -12 -22 -40 -32 -22 -8 -69
-27 -104 -41 -35 -14 -91 -31 -124 -36 -33 -5 -79 -19 -101 -30 -25 -13 -50
-19 -67 -15 -27 5 -191 -23 -240 -42 -14 -5 -63 -13 -110 -16 -47 -4 -107 -14
-135 -21 -27 -8 -90 -16 -140 -18 -51 -3 -118 -14 -155 -25 -36 -11 -92 -29
-125 -38 -33 -10 -73 -26 -90 -36 -47 -28 -78 -40 -108 -44 -16 -2 -41 -12
-55 -22 -15 -10 -49 -27 -77 -36 -27 -10 -81 -38 -120 -61 -68 -42 -176 -95
-223 -109 -12 -4 -58 -32 -101 -62 -44 -30 -82 -54 -86 -54 -27 0 -159 -97
-238 -174 -52 -52 -103 -97 -113 -100 -11 -4 -41 -36 -69 -71 -51 -66 -188
-190 -252 -227 l-35 -21 15 30 c21 40 228 236 274 260 46 24 62 48 45 65 -45
45 -313 -217 -428 -420 -10 -18 -32 -42 -49 -52 -36 -23 -62 -42 -186 -135
-52 -38 -111 -79 -132 -89 -47 -24 -59 -39 -51 -60 6 -15 18 -17 105 -10 55 3
99 3 99 -1 0 -3 -20 -32 -44 -63 -75 -96 -125 -191 -126 -234 0 -32 19 -37 42
-10 8 9 34 53 56 97 23 44 60 103 83 130 23 28 45 60 50 71 8 22 96 60 120 52
5 -2 -9 -29 -32 -61 -57 -81 -150 -263 -143 -282 12 -30 34 -14 65 48 28 56
209 337 234 363 20 20 134 79 140 72 4 -4 -4 -35 -17 -70 -28 -70 -70 -224
-92 -338 -104 -519 -181 -810 -217 -810 -5 0 -9 -11 -9 -24 0 -17 11 -31 38
-47 20 -12 53 -36 72 -54 42 -38 105 -63 149 -60 58 5 54 28 -6 40 -53 10 -91
32 -143 81 l-44 43 30 43 c17 24 56 86 87 138 75 125 210 323 225 328 22 7 14
-91 -14 -159 -35 -86 -42 -194 -20 -323 9 -53 23 -116 30 -139 8 -23 22 -69
31 -102 9 -33 37 -102 61 -153 85 -177 271 -337 444 -382 88 -23 188 -79 227
-126 21 -25 38 -50 39 -57 0 -12 -23 -59 -80 -160 -15 -27 -34 -78 -41 -115
-8 -37 -19 -83 -25 -102 -15 -50 -52 -274 -57 -347 -4 -51 0 -75 22 -130 29
-73 86 -173 110 -193 8 -6 26 -37 40 -68 14 -32 44 -84 65 -118 23 -34 61
-121 89 -200 60 -169 66 -191 53 -207 -5 -6 -13 -33 -16 -59 -10 -64 10 -99
76 -135 l52 -28 18 -85 c9 -47 21 -129 27 -183 8 -83 13 -100 33 -117 26 -22
50 -25 78 -10 15 8 27 3 60 -25 64 -54 83 -47 26 9 -18 19 -36 48 -39 66 -16
79 43 179 134 225 95 49 149 24 205 -91 27 -56 37 -125 24 -159 -5 -14 -4 -27
3 -34 18 -18 24 -13 41 31 l17 41 31 -37 c24 -29 36 -36 53 -32 15 4 28 -1 40
-14 16 -18 45 -28 45 -16 0 3 -18 41 -40 85 -22 44 -40 93 -40 108 0 15 -12
60 -26 98 -42 117 -64 207 -64 263 0 30 -7 63 -15 76 -8 12 -17 51 -20 87 -8
92 -19 159 -48 284 -14 61 -29 136 -32 168 -6 46 -15 67 -47 108 -22 27 -58
59 -79 69 -21 11 -42 26 -46 33 -7 13 -121 142 -166 189 -30 32 -57 93 -63
145 -6 43 -2 59 34 134 22 46 53 96 69 111 l28 27 95 -40 c161 -68 270 -101
353 -106 70 -5 77 -8 77 -27 0 -12 -7 -32 -16 -44 -13 -19 -22 -22 -45 -17
-16 4 -29 3 -29 -1 0 -20 55 -83 81 -94 34 -14 82 -67 73 -81 -8 -14 6 -49 21
-49 7 0 15 10 18 21 l6 21 33 -23 c18 -13 36 -28 40 -33 4 -6 29 -16 55 -22
26 -7 57 -15 69 -19 18 -6 26 4 60 69 21 42 43 76 49 76 6 0 16 -9 22 -20 12
-18 5 -44 -35 -122 -2 -5 3 -8 12 -8 9 0 16 6 16 13 1 19 38 59 49 52 16 -9
51 -94 45 -109 -3 -8 -1 -17 5 -20 11 -7 41 31 41 53 0 8 6 22 14 30 7 9 22
34 33 56 73 149 106 210 165 304 76 121 92 141 113 141 24 0 19 -14 -46 -128
-62 -108 -189 -357 -189 -370 0 -4 -11 -29 -25 -57 -25 -52 -32 -85 -16 -85 5
0 14 15 21 33 28 69 161 338 211 423 29 49 62 108 74 131 37 68 65 103 106
129 34 21 92 36 63 16 -11 -7 -79 -126 -102 -177 -8 -16 -19 -39 -25 -50 -6
-11 -39 -78 -74 -150 -35 -71 -68 -137 -74 -145 -33 -53 -90 -184 -85 -197 10
-25 33 2 52 60 9 29 25 63 34 77 10 14 24 41 32 60 23 53 138 293 162 335 6
11 23 36 39 56 15 20 27 39 27 42 0 8 63 109 78 125 6 7 12 18 12 24 0 12 81
90 87 84 3 -2 -7 -26 -21 -52 -14 -27 -26 -52 -26 -56 0 -4 -25 -54 -56 -110
-108 -196 -163 -303 -184 -357 -12 -30 -33 -80 -47 -110 -125 -272 -142 -321
-109 -321 22 0 38 26 40 67 1 21 10 55 19 77 9 21 17 44 17 51 0 7 6 18 14 24
8 7 18 27 22 44 4 18 17 52 29 77 13 25 31 65 41 90 10 25 42 86 70 135 28 50
74 133 101 185 92 172 104 194 134 228 34 39 37 59 8 64 -19 3 -15 9 27 50
103 99 139 128 143 117 2 -6 -24 -65 -58 -131 -34 -67 -60 -122 -58 -125 12
-11 35 15 61 70 45 95 137 237 113 172 -4 -8 -2 -17 4 -20 5 -4 12 2 15 12 3
10 10 27 17 38 6 11 24 47 41 80 16 33 33 62 36 65 4 3 19 28 33 57 15 28 31
54 35 57 5 3 17 -12 27 -34 l18 -40 -31 -72 c-37 -89 -44 -110 -34 -104 4 2
23 38 42 80 19 41 39 74 44 73 6 -2 18 -15 29 -29 18 -24 18 -27 2 -64 -34
-78 -54 -144 -45 -149 5 -3 12 9 15 27 8 37 60 144 73 152 5 3 16 0 25 -7 14
-11 7 -36 -64 -227 -44 -118 -85 -231 -91 -250 -10 -35 -23 -66 -61 -148 -12
-27 -16 -47 -10 -53 9 -9 28 27 57 111 8 25 25 70 37 100 11 30 41 111 64 180
24 69 57 155 74 192 17 36 31 71 31 76 0 5 6 12 14 15 7 3 14 16 14 29 0 13 9
45 21 70 11 26 21 51 21 56 0 10 73 178 111 256 25 52 36 61 56 48 14 -9 -15
-112 -71 -251 -19 -47 -47 -117 -61 -156 -15 -38 -33 -85 -41 -102 -8 -18 -21
-50 -28 -70 -8 -21 -27 -67 -43 -103 -41 -89 -67 -159 -61 -165 8 -8 59 105
158 350 4 11 16 39 25 62 10 23 18 50 19 60 1 10 9 32 19 50 9 17 25 54 36 81
56 141 103 222 130 222 11 0 33 -8 51 -17 30 -17 31 -20 26 -70 -5 -56 9 -73
20 -26 4 15 13 34 21 41 7 7 13 29 13 48 0 26 -4 34 -18 34 -18 0 -42 18 -42
31 0 17 60 20 90 4 42 -22 46 -39 17 -75 -66 -78 -107 -204 -107 -331 0 -54
-6 -100 -15 -123 -8 -20 -11 -36 -6 -36 5 0 13 9 16 20 3 11 10 20 14 20 12 0
51 -80 51 -106 0 -20 -54 -138 -70 -154 -3 -3 -29 -52 -57 -110 -29 -58 -69
-134 -88 -170 -20 -36 -59 -108 -86 -160 -27 -52 -49 -89 -49 -82 0 33 -27 -1
-35 -43 0 -5 -11 -31 -23 -58 -42 -88 -139 -322 -146 -349 -13 -55 14 -27 30
30 20 68 52 142 62 142 8 0 113 -265 141 -355 18 -60 90 -240 138 -345 14 -30
27 -62 29 -70 1 -8 17 -51 34 -95 17 -44 36 -92 41 -107 6 -15 18 -30 28 -33
9 -3 25 -19 35 -36 18 -30 68 -59 101 -59 9 0 40 -11 68 -24 29 -14 66 -28 82
-32 l30 -7 -20 23 -20 23 105 -7 c129 -10 263 -23 312 -32 28 -5 50 0 94 20
63 29 109 33 138 11 30 -23 111 -18 352 19 120 19 259 38 309 42 66 5 83 9 66
16 -13 4 -27 5 -32 2 -15 -9 -64 6 -53 15 5 5 25 14 46 20 30 10 43 9 73 -4
43 -17 45 -18 45 -7 0 15 -71 52 -101 52 -18 0 -60 -5 -95 -12 -48 -9 -90 -8
-186 2 -68 7 -145 15 -173 17 -59 6 -71 14 -80 55 -4 17 -18 54 -31 84 -17 38
-20 55 -12 60 16 10 62 -48 77 -96 19 -65 48 -74 226 -72 234 4 287 17 393 97
39 30 52 35 101 35 44 0 71 7 126 35 46 23 78 34 93 30 12 -3 43 -32 69 -65
38 -49 60 -67 122 -97 103 -50 150 -50 251 0 89 45 213 145 232 187 10 24 24
34 62 45 60 18 100 20 90 4 -12 -19 19 -29 71 -22 77 10 113 29 180 96 55 56
63 68 78 133 9 40 17 106 17 147 0 79 -6 94 -99 260 l-33 58 37 77 c21 42 51
97 68 122 27 41 30 52 28 118 -1 43 -9 93 -21 125 -18 48 -26 56 -87 91 -38
22 -89 52 -114 68 -25 15 -93 43 -150 62 -127 40 -140 47 -206 102 -92 79 -82
115 83 304 182 209 192 284 53 414 -39 37 -82 71 -95 77 -67 25 -386 -1 -439
-35 -14 -9 -31 -16 -39 -16 -8 0 -17 -8 -21 -18 -5 -17 -43 -42 -64 -42 -5 0
-11 17 -13 38 -5 36 -48 103 -139 217 -22 28 -49 67 -60 89 l-21 38 30 87 c54
160 75 265 76 384 l1 98 -80 75 c-44 40 -94 80 -111 88 -17 9 -75 45 -130 81
-54 36 -108 68 -120 71 -11 3 -25 17 -30 32 -8 20 -23 32 -55 42 -78 25 -132
52 -156 78 -12 14 -23 27 -23 29 0 8 108 170 123 185 59 59 128 229 163 406
37 182 37 274 0 412 -25 94 -46 143 -137 310 -13 24 -69 90 -124 146 -81 82
-110 105 -155 122 -47 17 -57 18 -69 7 -20 -19 -2 -39 48 -54 48 -14 157 -106
211 -177 86 -114 185 -363 197 -495 4 -52 -1 -102 -26 -227 -45 -222 -106
-379 -179 -458 -10 -10 -29 -38 -43 -61 -38 -64 -40 -61 -113 177 -53 176 -55
193 -60 601 -6 375 -18 551 -45 623 -6 15 -11 37 -11 48 0 12 -14 60 -31 107
-78 214 -241 369 -461 440 -82 26 -88 26 -163 0z m132 -45 c106 -45 235 -116
268 -149 32 -31 110 -154 150 -237 39 -79 50 -118 71 -233 21 -122 25 -187 34
-549 10 -431 15 -479 63 -626 14 -41 30 -97 37 -125 6 -27 22 -68 34 -90 13
-22 27 -50 31 -63 6 -22 5 -23 -35 -20 l-42 3 -19 75 c-11 41 -26 81 -35 90
-14 13 -15 12 -9 -15 3 -16 11 -49 17 -72 5 -23 8 -47 6 -54 -4 -12 -86 -38
-124 -39 -17 0 -23 7 -27 33 -13 87 -29 162 -42 200 -7 23 -19 71 -26 107 -6
36 -27 125 -45 199 -19 73 -34 139 -34 147 0 7 27 27 59 44 73 39 111 78 114
116 2 23 -2 30 -20 32 -17 3 -23 -2 -23 -15 0 -31 -29 -62 -80 -88 -27 -14
-53 -25 -58 -25 -6 0 -15 21 -21 46 -15 57 -34 47 -21 -10 10 -46 6 -56 -20
-56 -22 0 -40 28 -40 60 0 20 -25 38 -37 26 -4 -3 -2 -26 4 -51 6 -25 7 -48 2
-51 -13 -8 -65 23 -88 53 -26 32 -47 20 -32 -18 16 -42 58 -73 109 -79 37 -4
47 -9 50 -25 1 -11 10 -44 19 -73 13 -39 15 -57 7 -70 -19 -30 3 -121 26 -107
5 3 11 1 15 -5 19 -30 21 -1 5 63 -52 207 -54 219 -39 228 35 22 45 10 63 -68
22 -98 42 -196 50 -248 9 -57 35 -198 52 -282 8 -40 14 -76 14 -82 0 -10 -58
-26 -66 -19 -5 5 -23 129 -29 198 -13 141 -17 170 -26 176 -5 3 -12 -3 -16
-13 -6 -15 -9 -13 -19 12 l-13 30 -1 -29 c0 -16 9 -67 20 -115 25 -106 49
-262 42 -279 -5 -14 -46 -27 -60 -18 -6 3 -13 34 -16 68 -4 35 -12 92 -18 127
-8 49 -8 66 0 69 17 5 15 42 -2 42 -8 0 -17 12 -20 26 -5 20 -10 24 -18 16 -8
-8 -7 -38 6 -109 9 -54 16 -130 15 -168 -1 -39 0 -76 2 -84 3 -9 -18 -20 -69
-33 -40 -11 -75 -18 -78 -16 -2 3 2 32 11 64 22 83 30 258 16 338 -6 36 -16
96 -22 134 -26 162 -93 437 -124 507 -13 30 -43 96 -84 187 -18 40 -64 184
-76 238 -56 241 -43 388 58 643 29 76 33 80 81 102 62 28 75 29 123 9z m-2865
-716 c79 -96 119 -164 312 -531 25 -49 46 -94 46 -99 0 -6 10 -27 23 -47 12
-20 23 -43 23 -51 1 -8 22 -67 48 -130 26 -63 56 -142 67 -175 11 -33 25 -68
30 -78 5 -9 12 -37 15 -60 l6 -43 -64 -42 c-82 -52 -95 -67 -78 -87 11 -13 20
-11 69 17 31 18 79 49 106 70 28 21 54 38 59 38 5 0 24 11 42 25 18 14 35 25
38 25 2 0 67 34 144 75 77 41 144 75 150 75 11 0 92 -104 92 -119 0 -5 3 -11
8 -13 4 -1 20 -34 36 -73 15 -38 37 -90 47 -115 11 -25 20 -49 20 -53 -1 -4
-49 -10 -108 -13 -85 -4 -116 -9 -153 -28 -25 -13 -64 -29 -85 -36 -22 -7 -57
-25 -77 -41 -20 -16 -42 -29 -47 -29 -21 0 -11 18 26 46 21 16 45 36 55 46 24
24 119 73 142 73 27 0 31 21 6 28 -27 7 -61 -3 -143 -43 -48 -23 -67 -38 -67
-51 0 -10 -6 -19 -13 -19 -7 0 -23 -9 -35 -20 -12 -11 -25 -20 -30 -20 -19 0
-101 -71 -122 -105 -37 -59 -6 -75 47 -23 50 48 51 26 3 -44 -31 -45 -40 -66
-33 -77 15 -24 28 -23 59 6 130 121 158 138 292 182 142 47 210 52 271 21 36
-18 62 -50 41 -50 -4 0 -22 -11 -38 -25 l-30 -25 -28 34 c-29 33 -63 56 -83
56 -19 0 -12 -30 14 -56 47 -47 55 -84 18 -84 -9 0 -24 -7 -34 -16 -10 -9 -36
-17 -58 -18 -23 -1 -47 -8 -53 -14 -24 -24 -47 -14 -54 24 -4 24 -14 39 -30
46 -32 15 -40 4 -26 -35 16 -46 15 -67 -5 -67 -26 0 -123 -51 -117 -62 4 -5
37 -6 83 -2 l77 6 37 -51 c23 -32 44 -51 57 -51 25 0 26 -1 -10 65 -16 30 -30
59 -30 64 0 5 17 11 38 13 21 3 69 21 107 39 38 18 70 29 72 23 11 -31 60
-108 71 -112 18 -5 15 21 -10 92 -25 71 -21 88 24 115 18 11 38 24 44 30 8 7
18 5 30 -4 47 -35 57 -8 19 48 -13 20 -20 39 -14 42 13 8 0 57 -19 72 -11 10
-15 29 -13 80 1 43 -6 99 -19 153 -47 184 -100 433 -94 439 5 5 28 -24 46 -59
7 -14 26 -47 42 -75 95 -164 184 -366 266 -600 57 -161 98 -250 117 -250 17 0
18 14 14 233 -2 127 0 232 3 232 9 0 66 -125 66 -145 0 -8 9 -37 21 -63 11
-26 27 -61 34 -79 8 -18 22 -69 31 -115 26 -127 14 -486 -21 -664 -35 -173
-74 -336 -84 -349 -5 -5 -11 -26 -15 -46 -5 -30 -108 -193 -155 -246 -6 -7
-31 -41 -56 -76 -39 -56 -83 -101 -176 -180 -15 -12 -64 -58 -110 -102 -82
-78 -251 -200 -337 -244 -92 -47 -373 -125 -488 -136 -38 -3 -114 -13 -169
-21 -55 -9 -163 -16 -240 -16 -165 0 -245 17 -395 86 -52 24 -113 49 -135 56
-22 6 -54 18 -72 26 -17 8 -34 14 -38 14 -4 0 -28 11 -54 24 -120 62 -173 95
-222 138 -30 26 -68 59 -85 73 -43 34 -153 203 -215 327 -86 176 -170 406
-199 548 -7 30 -23 109 -38 175 -14 66 -26 156 -28 200 -1 44 -7 127 -13 185
-12 116 0 257 26 320 16 40 26 31 37 -34 4 -21 13 -52 21 -70 7 -17 23 -69 35
-116 12 -47 26 -101 31 -121 5 -21 15 -39 22 -42 33 -13 39 10 53 199 30 412
55 589 130 895 38 153 39 154 52 38 16 -143 47 -331 60 -369 7 -21 12 -42 15
-65 2 -18 -5 -20 -53 -23 -30 -2 -59 -8 -65 -13 -16 -17 24 -39 69 -39 23 0
46 -4 52 -8 15 -9 27 -65 26 -118 -1 -46 20 -85 37 -69 5 6 11 44 12 85 2 95
7 102 62 83 41 -14 166 -44 352 -84 148 -32 155 -33 155 -18 -1 38 -29 51
-173 78 -56 11 -127 26 -157 34 -30 8 -92 23 -138 32 -57 13 -86 24 -93 37 -6
12 -4 52 6 120 9 57 22 148 30 203 25 170 37 227 94 410 46 151 87 259 122
322 37 66 126 200 138 207 5 3 64 22 132 42 88 26 154 38 229 44 58 4 115 8
127 8 15 2 35 -14 65 -50z m590 -344 c15 -21 62 -91 104 -154 43 -63 84 -122
93 -131 16 -15 70 -95 120 -174 13 -22 42 -65 63 -97 21 -31 38 -61 38 -67 0
-6 -15 -18 -32 -27 -18 -9 -65 -36 -104 -60 -39 -24 -74 -44 -78 -44 -4 0 -38
-18 -76 -40 -38 -22 -73 -40 -78 -40 -5 0 -12 73 -16 163 -3 89 -8 173 -10
187 -2 14 -7 54 -10 90 -9 86 -34 273 -46 330 -19 98 -20 112 -7 108 6 -3 24
-22 39 -44z m2497 -619 l0 -20 -9 20 c-5 11 -9 27 -9 35 -1 13 0 13 9 0 5 -8
9 -24 9 -35z m49 -180 c-3 -3 -9 2 -12 12 -6 14 -5 15 5 6 7 -7 10 -15 7 -18z
m-692 -27 c-9 -53 -15 -62 -32 -47 -18 15 -18 18 6 57 26 43 34 40 26 -10z
m1124 -283 c28 -7 62 -21 75 -29 13 -9 39 -16 57 -16 53 0 77 -10 80 -34 2
-13 11 -22 26 -24 12 -2 22 -8 22 -13 0 -5 19 -18 43 -28 23 -10 64 -35 91
-55 50 -39 172 -116 182 -116 13 0 80 -64 97 -93 15 -24 18 -44 14 -106 -8
-132 -58 -330 -86 -339 -8 -3 -11 0 -7 6 10 16 -13 25 -29 12 -8 -7 -15 -25
-15 -40 0 -16 -18 -66 -40 -111 -45 -94 -48 -109 -21 -102 12 3 33 31 52 72
l32 66 11 -30 c15 -43 82 -151 126 -205 58 -71 80 -112 80 -153 0 -32 -76
-253 -112 -324 -7 -15 -8 -26 -1 -35 6 -7 13 -32 17 -56 6 -39 3 -46 -31 -88
-35 -42 -151 -124 -174 -124 -6 0 12 28 41 61 36 44 48 65 40 73 -16 16 -38
-2 -93 -73 -47 -62 -54 -86 -26 -86 8 0 17 -4 20 -9 14 -18 143 54 196 110 36
38 54 50 59 42 5 -7 23 -41 42 -76 38 -73 38 -77 -13 -189 -19 -41 -35 -77
-35 -81 0 -4 -27 -34 -61 -68 -68 -69 -66 -90 4 -43 49 32 67 31 67 -4 0 -12
7 -35 15 -51 24 -45 18 -84 -22 -154 -21 -35 -45 -76 -53 -91 -22 -39 -201
-199 -275 -245 -16 -11 -76 -43 -132 -73 -85 -44 -111 -53 -153 -53 -28 0 -66
-7 -86 -15 -40 -16 -47 -15 -279 40 -77 19 -191 46 -253 60 -98 23 -111 29
-100 42 10 12 9 17 -6 25 -51 28 -72 168 -40 261 13 38 14 50 4 62 -33 40 -76
-78 -67 -184 5 -74 23 -113 64 -147 l28 -24 -35 12 c-56 18 -106 54 -118 85
-36 92 -40 162 -14 235 l17 51 110 -7 c60 -4 153 -13 206 -21 95 -14 195 -8
224 15 6 4 28 13 50 20 22 7 63 25 91 41 45 25 53 27 64 14 25 -30 53 -10 100
69 19 31 20 40 9 47 -26 16 -75 10 -95 -12 -10 -12 -28 -25 -39 -31 -38 -17
-68 -36 -75 -47 -10 -17 -118 -52 -177 -58 -29 -3 -78 -1 -110 6 -32 6 -134
15 -228 21 -143 9 -177 14 -215 33 -43 21 -45 24 -45 65 -1 52 -37 85 -51 47
-9 -24 -19 -18 -45 28 -38 67 -49 108 -43 155 9 59 45 84 116 80 l53 -3 -3
-86 c-3 -72 0 -94 18 -138 24 -55 60 -91 91 -91 22 0 24 11 7 28 -9 9 -8 12 5
12 15 0 17 6 12 33 -11 59 -12 139 -3 180 11 48 -3 70 -28 46 -20 -21 -30
-150 -15 -203 14 -53 7 -57 -18 -8 -30 58 -34 202 -8 229 8 8 76 24 147 35 36
5 73 17 83 26 21 18 64 26 283 46 89 8 182 20 208 27 52 13 75 34 58 51 -8 8
-29 8 -79 0 -37 -6 -111 -14 -163 -17 -52 -4 -142 -12 -200 -20 -58 -7 -142
-17 -187 -21 l-82 -7 5 34 c3 19 -1 95 -10 169 -28 231 -79 400 -112 367 -8
-8 19 -148 48 -252 25 -86 47 -207 48 -260 0 -22 6 -52 14 -67 l14 -26 -75 -7
c-142 -14 -212 9 -305 100 -57 56 -88 122 -88 187 0 41 22 135 40 168 6 12 9
28 6 36 -3 9 1 27 8 42 19 35 108 127 171 176 62 47 309 169 390 191 33 10 94
28 135 42 57 18 121 28 265 39 188 16 242 29 232 57 -5 17 -154 20 -297 8
-125 -11 -205 -29 -375 -86 -113 -38 -128 -45 -254 -109 l-73 -39 6 252 c4
178 2 258 -6 276 -12 27 -33 33 -40 13 -2 -7 -1 -134 3 -283 l6 -270 -36 -32
c-20 -18 -44 -33 -54 -33 -62 0 -166 99 -227 219 -19 38 -21 55 -17 120 2 42
14 103 25 136 11 33 22 71 25 85 4 14 12 33 20 43 11 16 13 -6 13 -150 -1
-163 0 -170 27 -228 32 -67 58 -100 100 -122 38 -19 47 -9 14 17 -42 33 -79
120 -83 197 l-4 68 17 -46 c20 -51 50 -96 58 -87 3 3 1 26 -6 52 -14 57 -7
220 11 259 7 15 21 27 32 27 22 0 25 35 3 44 -35 13 -73 -32 -94 -111 -7 -24
-14 -43 -17 -43 -3 0 -4 42 -2 93 1 50 -2 102 -6 115 -7 19 0 31 51 80 76 73
79 75 171 129 169 100 308 162 512 228 113 37 223 73 245 81 45 15 133 11 215
-11z m-5282 -680 c91 -99 151 -219 248 -490 14 -38 47 -125 74 -192 26 -68 44
-125 39 -128 -17 -11 -149 72 -149 94 0 4 14 11 32 16 40 12 49 35 15 35 -28
0 -32 7 -42 85 -13 94 -71 234 -144 347 -35 53 -47 64 -76 69 -27 5 -39 1 -54
-15 -28 -30 -51 -89 -51 -133 -1 -66 -19 -14 -30 88 -12 103 -5 175 16 183 8
3 14 16 14 28 0 28 26 68 45 68 7 0 36 -25 63 -55z m14 -232 c8 -10 24 -38 36
-63 l22 -45 -24 -3 c-14 -2 -30 -10 -36 -17 -10 -12 -8 -16 6 -22 23 -8 106
-64 116 -78 18 -24 8 -44 -23 -43 -97 3 -76 -124 40 -245 56 -59 130 -99 196
-107 l49 -5 49 -93 c27 -52 46 -96 43 -99 -9 -9 -219 77 -271 111 -139 92
-250 255 -304 445 -22 79 -21 92 4 71 17 -14 16 -16 19 60 3 55 37 150 54 150
5 0 16 -8 24 -17z m3665 -268 c15 -8 41 -17 56 -20 15 -3 31 -13 34 -21 6 -17
-11 -84 -33 -125 -7 -14 -20 -48 -29 -75 -9 -27 -25 -68 -36 -91 -10 -24 -19
-45 -19 -49 0 -3 -10 -28 -21 -55 -15 -34 -27 -49 -41 -49 -29 0 -31 24 -7 77
12 26 25 59 30 73 12 39 90 214 101 227 24 29 -19 44 -44 16 -15 -17 -34 -79
-30 -96 1 -5 -14 -50 -33 -100 -68 -174 -70 -177 -100 -131 -15 23 -15 27 -1
43 9 10 16 21 16 26 0 17 51 115 60 115 6 0 10 7 10 15 0 8 -9 15 -20 15 -15
0 -27 -15 -46 -57 -36 -82 -39 -86 -49 -85 -6 1 -14 23 -19 49 -12 74 26 158
112 246 37 37 70 67 73 67 4 0 20 -7 36 -15z m-3523 -67 c17 -23 22 -98 8 -98
-13 0 -55 97 -48 109 11 17 23 13 40 -11z m3131 -448 c-25 -48 -34 -57 -48
-43 -7 6 11 38 41 74 30 34 33 20 7 -31z m2806 -23 c25 -34 54 -74 63 -89 22
-34 45 -163 46 -255 0 -47 4 -73 11 -73 13 0 7 261 -6 293 -12 28 18 20 37
-11 10 -15 37 -55 62 -89 43 -61 48 -76 34 -99 -7 -11 -26 -80 -33 -119 -2
-11 -7 -28 -11 -39 -5 -14 -3 -17 7 -14 12 4 18 20 37 103 4 17 13 39 19 50
12 19 14 19 27 2 29 -37 4 -214 -46 -326 -30 -68 -34 -86 -18 -76 14 9 12 -22
-5 -89 -17 -64 -16 -69 4 -56 9 5 23 58 37 132 12 67 27 141 34 163 15 50 22
92 21 127 0 50 26 19 39 -44 15 -79 16 -159 1 -186 -12 -23 -31 -30 -31 -12 0
6 -4 10 -8 10 -5 0 -9 -14 -10 -30 -2 -64 -67 -209 -86 -190 -14 14 -26 12
-26 -4 0 -8 8 -16 17 -18 14 -3 11 -9 -15 -36 -18 -18 -32 -43 -32 -55 0 -12
-18 -54 -40 -94 -37 -67 -45 -74 -103 -101 -97 -46 -144 -54 -208 -37 -110 30
-153 37 -198 32 l-46 -5 39 32 c118 93 181 154 235 224 32 42 71 88 86 102 37
33 85 136 85 180 0 20 -9 53 -20 75 -31 60 -27 128 14 216 56 126 54 153 -26
278 -30 48 -55 128 -50 162 2 16 7 29 11 29 3 0 27 -28 52 -63z m-3723 -787
c-60 -121 -113 -222 -119 -225 -5 -4 -9 2 -9 12 0 10 -9 33 -20 51 -20 33 -27
78 -12 84 5 2 34 40 65 85 31 46 65 93 76 105 12 12 23 30 27 40 3 10 9 18 14
18 5 0 11 9 15 19 6 19 22 27 56 30 12 1 -14 -59 -93 -219z m-44 158 c-7 -22
-60 -112 -107 -181 -14 -21 -27 -43 -30 -50 -6 -16 -47 20 -47 42 0 31 107
181 141 198 37 19 51 16 43 -9z m-124 -13 c0 -11 -82 -135 -89 -135 -5 0 -16
9 -26 20 -16 17 -16 23 -4 52 8 18 13 38 11 45 -2 11 24 18 81 22 15 0 27 -1
27 -4z m-140 -19 c0 -8 -31 -36 -40 -36 -5 0 -14 9 -20 20 -10 18 -8 20 25 20
19 0 35 -2 35 -4z m-265 -26 c3 -6 0 -17 -8 -25 -9 -8 -23 -36 -33 -62 -23
-63 -32 -72 -49 -50 -11 15 -9 25 11 67 13 28 24 54 24 59 0 18 45 27 55 11z
m61 -42 c-29 -76 -62 -138 -73 -138 -30 0 -7 72 42 133 37 46 48 47 31 5z
m114 -8 c20 -20 20 -20 0 -52 -11 -18 -36 -63 -55 -101 -37 -71 -43 -73 -92
-35 -14 11 1 62 27 93 10 11 30 41 45 68 30 52 45 57 75 27z m87 -72 c13 -12
23 -26 23 -31 0 -20 -82 -177 -92 -177 -19 0 -68 34 -68 48 0 11 52 115 87
175 8 13 26 8 50 -15z m4957 -377 c9 -16 12 -31 9 -35 -9 -8 -48 -8 -57 2 -8
7 -13 8 -42 11 -33 2 25 48 63 50 7 1 19 -12 27 -28z m-2051 -103 c102 -24
137 -36 138 -47 0 -9 3 -27 5 -41 9 -46 7 -65 -16 -145 -12 -44 -27 -105 -33
-135 -13 -69 -14 -63 -22 85 -3 66 -7 135 -8 153 -2 25 -14 44 -57 83 -48 44
-59 50 -86 44 -23 -4 -38 0 -55 14 -13 11 -19 21 -14 21 6 0 72 -14 148 -32z
m2112 12 c16 -18 16 -20 1 -25 -52 -17 -50 -18 -40 23 8 27 16 28 39 2z
m-5932 -50 c14 -11 32 -20 40 -20 18 0 41 -26 61 -70 9 -19 28 -55 41 -80 28
-53 30 -73 11 -90 -8 -6 -23 -32 -32 -56 -11 -29 -24 -46 -38 -50 -12 -3 -27
-18 -34 -34 -12 -26 -16 -28 -33 -17 -17 10 -23 9 -39 -10 -10 -13 -24 -23
-32 -23 -24 0 -86 49 -109 87 -21 33 -24 50 -23 128 1 133 45 222 120 245 41
12 39 12 67 -10z m5947 -207 c-60 -113 -68 -95 -12 29 30 68 38 78 40 56 2
-15 -10 -50 -28 -85z m-270 -56 c0 -14 -20 -37 -32 -37 -13 0 -9 38 5 43 21 9
27 7 27 -6z"/>
<path d="M7410 5003 c0 -5 9 -35 20 -68 10 -33 33 -107 51 -165 17 -58 35
-114 39 -125 4 -11 14 -47 21 -80 10 -44 19 -61 33 -63 16 -3 18 1 13 30 -3
18 -15 62 -27 98 -13 36 -33 94 -45 130 -51 153 -89 250 -97 250 -5 0 -8 -3
-8 -7z"/>
<path d="M7200 4796 c0 -8 5 -18 10 -21 6 -3 10 1 10 9 0 8 -4 18 -10 21 -5 3
-10 -1 -10 -9z"/>
<path d="M4150 4228 c0 -6 7 -19 15 -28 25 -28 62 -139 69 -210 4 -36 2 -96
-3 -133 -12 -83 -3 -110 41 -133 18 -9 42 -24 53 -34 29 -26 65 -35 65 -17 0
13 -28 35 -103 81 l-27 16 6 128 c6 111 4 138 -16 212 -12 47 -28 95 -36 108
-15 23 -64 31 -64 10z"/>
<path d="M5700 4187 c0 -8 -10 -24 -22 -35 -190 -168 -310 -254 -454 -325 -49
-24 -109 -55 -134 -69 -91 -53 -500 -179 -642 -198 -46 -6 -108 -15 -138 -20
-248 -43 -318 -50 -526 -59 -223 -10 -303 -7 -477 18 -90 13 -229 60 -245 83
-17 23 -38 23 -47 1 -20 -50 -8 -232 24 -349 29 -109 97 -296 131 -363 53
-106 164 -269 230 -337 131 -137 316 -239 535 -295 155 -39 277 -46 435 -23
58 8 128 18 155 21 28 3 129 25 225 49 174 44 240 70 390 155 41 23 100 56
130 72 55 30 120 92 229 217 31 35 71 78 90 95 62 55 182 332 210 485 53 287
49 565 -8 725 -6 17 -19 59 -29 95 -15 53 -22 66 -40 68 -14 2 -22 -2 -22 -11z
m28 -138 c13 -56 5 -79 -28 -79 -22 0 -49 -30 -59 -66 -9 -33 -29 -43 -37 -17
-4 10 -16 28 -28 41 l-20 23 58 54 c32 30 62 55 66 55 4 0 10 9 13 20 9 34 23
22 35 -31z m28 -179 c7 -36 12 -96 13 -135 1 -104 -26 -367 -50 -475 -28 -125
-44 -155 -76 -143 -14 6 -18 43 -5 43 10 0 62 99 62 118 0 20 -9 14 -59 -39
-43 -47 -49 -51 -69 -40 -21 11 -24 9 -33 -18 -12 -34 -34 -39 -65 -17 -19 14
-18 15 8 43 28 30 108 170 108 191 0 20 -14 14 -32 -16 -29 -45 -83 -115 -122
-157 l-36 -40 -262 -1 c-295 -2 -357 -6 -443 -27 -33 -8 -83 -18 -111 -21 -28
-4 -105 -19 -170 -36 -66 -16 -148 -34 -184 -41 -106 -19 -340 -90 -410 -124
-40 -20 -173 -76 -192 -82 -24 -7 -39 11 -76 90 -18 37 -37 65 -42 62 -13 -8
0 -74 26 -129 13 -28 24 -55 24 -60 0 -6 -26 -25 -58 -43 -43 -23 -63 -28 -75
-21 -17 9 -87 111 -87 126 0 5 -11 19 -25 32 -21 19 -25 21 -25 7 0 -29 36
-113 64 -149 29 -38 34 -68 12 -68 -29 0 -157 204 -191 305 -31 91 -65 220
-64 245 0 24 2 23 38 -17 20 -23 43 -60 51 -82 7 -23 19 -41 27 -41 14 0 14
-4 16 136 2 120 10 134 74 134 38 0 50 -5 77 -32 17 -18 38 -44 47 -57 22 -35
44 -22 64 41 10 29 20 56 24 60 10 11 87 19 201 19 156 1 369 18 505 41 66 11
154 24 195 28 171 19 554 140 725 229 l80 42 13 -33 c20 -52 28 -63 47 -63 13
0 21 11 27 35 22 91 39 119 103 170 34 27 72 50 84 50 23 0 42 -26 62 -81 6
-20 20 -47 30 -60 16 -21 20 -22 32 -9 7 8 22 44 31 80 32 120 74 134 92 30z
m-2581 -401 c39 -13 72 -25 74 -26 3 -2 -5 -13 -17 -26 -12 -12 -27 -47 -33
-77 -7 -30 -14 -57 -15 -59 -2 -2 -23 9 -48 25 -33 21 -47 37 -53 64 -12 46
-5 133 11 127 6 -2 43 -15 81 -28z m279 -55 c17 -7 22 -39 7 -49 -9 -5 -61 36
-61 49 0 8 33 8 54 0z m1898 -289 c9 -4 21 -19 26 -33 11 -30 47 -72 62 -72
13 0 13 36 0 60 -14 26 -3 29 60 22 57 -7 56 -6 76 -81 6 -19 34 6 34 30 0 11
7 19 15 19 8 0 15 -7 15 -15 0 -80 -284 -420 -399 -478 -30 -15 -63 -37 -73
-47 -11 -11 -28 -20 -39 -20 -34 0 -88 30 -110 61 -25 36 -41 30 -57 -24 -13
-41 -66 -107 -86 -107 -6 0 -24 -13 -41 -29 -42 -40 -149 -73 -195 -61 -91 23
-124 39 -149 74 -14 18 -15 18 -28 1 -7 -11 -13 -29 -13 -41 0 -33 -44 -79
-88 -92 -104 -31 -235 1 -255 63 -6 17 -15 33 -21 37 -17 12 -37 -23 -31 -53
10 -46 -14 -49 -138 -18 -72 18 -146 45 -207 76 -96 49 -207 120 -231 149 -29
35 5 144 53 171 37 20 45 15 51 -31 6 -44 40 -121 59 -132 19 -12 20 5 3 48
-9 26 -15 64 -13 94 3 42 6 49 26 52 16 2 22 10 22 27 0 27 42 49 215 114 132
50 441 135 600 165 44 8 134 27 200 40 66 14 163 28 215 31 52 4 97 9 100 11
7 7 322 -3 342 -11z m-1918 -490 c-4 -8 -10 -15 -15 -15 -5 0 -9 7 -9 15 0 8
7 15 15 15 9 0 12 -6 9 -15z m1591 -125 c10 -11 27 -20 37 -20 53 0 -40 -62
-114 -77 l-32 -6 30 39 c17 21 34 49 38 62 9 27 18 28 41 2z m-475 -192 c0 -4
-13 -8 -30 -8 -28 0 -40 17 -24 33 8 7 54 -13 54 -25z"/>
<path d="M3417 4089 c-14 -8 -16 -14 -7 -24 15 -19 -20 -28 -79 -21 -58 6
-142 -17 -192 -54 -23 -16 -47 -30 -54 -30 -16 0 -50 -31 -58 -52 -7 -19 0
-22 40 -18 l21 1 -19 -37 c-49 -97 17 -157 72 -67 12 20 42 57 66 83 47 51 59
55 238 80 80 12 80 11 180 -25 144 -53 135 -51 135 -22 0 27 -4 29 -162 101
-21 9 -38 21 -38 27 0 10 34 4 95 -18 77 -28 112 -36 129 -30 35 14 -1 44 -81
71 -132 43 -248 57 -286 35z"/>
<path d="M4451 3769 c-22 -9 -23 -11 -9 -25 20 -21 58 -10 58 17 0 21 -12 23
-49 8z"/>
<path d="M8194 3459 c-20 -41 -53 -139 -54 -161 0 -39 23 -13 59 65 55 119 57
127 32 127 -13 0 -27 -12 -37 -31z"/>
<path d="M6774 3073 c-44 -58 -71 -113 -79 -163 -4 -25 -9 -52 -10 -60 -10
-52 34 -194 63 -205 23 -8 25 1 8 27 -36 55 -30 216 11 306 23 48 32 39 21
-20 -14 -76 -5 -188 19 -234 31 -61 79 -79 49 -18 -28 55 -36 146 -20 221 8
37 14 71 14 75 0 5 6 7 12 6 19 -4 21 37 3 55 -8 9 -14 22 -13 29 2 8 -8 14
-23 16 -21 2 -33 -5 -55 -35z"/>
<path d="M8142 2478 c-19 -25 -24 -58 -9 -58 12 0 37 46 37 66 0 9 -18 3 -28
-8z"/>
<path d="M7110 2315 c-10 -12 -10 -21 -1 -43 6 -15 12 -82 13 -150 1 -67 4
-122 8 -122 4 0 15 15 24 33 15 27 17 52 14 149 -3 77 -8 121 -17 132 -17 20
-25 20 -41 1z"/>
<path d="M7960 2168 c-8 -13 -20 -34 -26 -48 -6 -14 -25 -38 -42 -55 -35 -34
-41 -55 -14 -55 33 0 79 60 107 141 16 45 1 55 -25 17z"/>
<path d="M7284 1844 c-5 -18 -1 -31 14 -47 26 -29 52 -137 52 -220 0 -103 31
-81 46 32 5 40 1 68 -21 137 -36 112 -76 156 -91 98z"/>
<path d="M7160 1801 c-30 -57 17 -198 58 -172 10 6 9 15 -3 44 -8 20 -15 61
-15 92 0 42 -4 55 -15 55 -8 0 -19 -9 -25 -19z"/>
<path d="M8700 2138 c0 -56 2 -99 4 -97 8 8 12 199 4 199 -4 0 -8 -46 -8 -102z"/>
<path d="M8787 2153 c-12 -11 -8 -23 8 -23 8 0 15 7 15 15 0 16 -12 20 -23 8z"/>
<path d="M8766 2062 c-4 -13 -5 -26 -2 -29 10 -11 18 4 14 29 l-4 23 -8 -23z"/>
<path d="M8756 2013 c-11 -11 -6 -23 9 -23 8 0 15 4 15 9 0 13 -16 22 -24 14z"/>
<path d="M8678 1923 c-16 -90 -15 -104 2 -87 12 12 40 161 32 169 -14 13 -20
-1 -34 -82z"/>
<path d="M8726 1916 c-19 -64 -20 -74 -5 -59 6 6 14 26 19 44 4 19 11 42 15
52 4 10 3 17 -3 17 -6 0 -18 -24 -26 -54z"/>
<path d="M8786 1895 c-4 -14 -11 -25 -16 -25 -6 0 -10 -4 -10 -10 0 -5 -16
-44 -36 -87 -54 -117 -57 -123 -65 -123 -9 0 11 81 25 99 8 11 8 15 -1 18 -7
3 -13 9 -13 14 0 6 4 8 9 5 16 -10 39 18 32 39 -7 17 -9 16 -15 -9 -6 -23 -9
-26 -21 -16 -17 14 -19 11 -35 -65 -19 -87 -53 -167 -77 -178 -26 -12 -30 -32
-8 -41 17 -6 43 17 56 52 9 23 11 24 28 8 24 -22 38 -20 44 7 6 27 67 184 98
252 12 28 23 52 23 55 1 3 5 11 9 18 5 7 3 12 -6 12 -8 0 -18 -11 -21 -25z"/>
<path d="M5130 6462 c-83 -2 -120 -9 -120 -20 0 -8 236 -6 298 3 66 10 39 27
-36 23 -37 -2 -101 -4 -142 -6z"/>
<path d="M5863 6403 c-44 -16 23 -36 127 -38 36 -1 89 -5 119 -9 43 -7 53 -6
49 5 -3 9 -35 18 -89 25 -126 16 -193 22 -206 17z"/>
<path d="M5053 6354 c-8 -22 15 -34 52 -26 16 4 58 7 93 7 40 0 62 4 62 11 0
19 -26 24 -116 24 -68 0 -86 -3 -91 -16z"/>
<path d="M2194 6266 c-16 -41 17 -269 51 -350 18 -41 60 -80 79 -73 19 8 21
33 3 40 -8 3 -24 45 -37 94 -13 48 -29 99 -35 113 -7 14 -18 59 -25 100 -14
80 -25 104 -36 76z"/>
<path d="M5811 6246 c-21 -25 13 -36 125 -41 60 -4 122 -8 137 -10 19 -3 30 0
34 11 12 33 -12 40 -184 48 -77 4 -104 2 -112 -8z"/>
<path d="M6232 6208 c3 -24 16 -29 127 -47 71 -11 127 -47 137 -86 3 -14 13
-25 21 -25 12 0 14 9 10 41 -9 71 -55 103 -176 125 -110 19 -123 19 -119 -8z"/>
<path d="M5471 6209 c-83 -10 -103 -21 -80 -44 12 -12 26 -13 79 -4 87 13 140
28 140 38 0 9 -37 22 -55 20 -5 -1 -43 -5 -84 -10z"/>
<path d="M3858 6155 c-9 -9 -199 -55 -288 -69 -99 -16 -216 -57 -236 -83 -19
-25 -18 -73 2 -73 11 0 13 6 9 19 -3 11 0 23 7 28 28 18 150 57 288 93 179 47
250 70 250 81 0 10 -23 12 -32 4z"/>
<path d="M5840 6100 c-91 -30 -114 -56 -49 -54 37 1 149 57 149 75 0 12 -1 12
-100 -21z"/>
<path d="M4050 6084 c-69 -18 -137 -34 -152 -34 -37 0 -58 -10 -58 -26 0 -36
112 -21 254 36 42 16 84 30 92 30 16 0 15 22 -2 26 -5 1 -65 -13 -134 -32z"/>
<path d="M5462 6038 c3 -23 4 -23 128 -20 118 4 154 11 136 29 -4 5 -66 9
-138 11 l-130 4 4 -24z"/>
<path d="M240 5972 c0 -6 16 -24 35 -41 19 -17 69 -70 111 -118 42 -49 84 -95
94 -103 33 -28 56 -79 44 -98 -71 -113 -158 -306 -169 -374 -4 -23 -13 -52
-20 -63 -7 -11 -16 -35 -20 -52 -7 -37 -33 -44 -56 -16 -8 9 -36 27 -64 39
-27 13 -67 38 -87 56 -38 32 -57 36 -35 8 7 -8 45 -44 86 -80 139 -121 124
-89 125 -258 1 -104 5 -155 15 -174 22 -43 32 -23 25 50 -6 63 8 207 21 220 3
3 48 -16 99 -43 l93 -49 5 -114 c6 -123 22 -164 67 -170 23 -4 27 8 9 26 -8 8
-14 53 -16 123 l-4 110 83 -3 c79 -3 84 -2 87 18 3 19 -5 24 -74 39 l-77 17 7
69 c3 38 20 112 36 164 30 92 85 215 96 215 3 0 29 -21 58 -46 100 -91 214
-154 277 -154 45 0 26 25 -45 60 -52 26 -102 62 -222 158 -12 9 -23 24 -26 32
-14 41 188 234 290 277 21 9 68 16 110 17 39 0 72 4 72 8 0 24 -36 38 -96 38
-52 0 -76 -6 -123 -30 -32 -16 -65 -35 -72 -43 -8 -7 -35 -27 -60 -45 -26 -17
-74 -61 -107 -98 l-59 -67 -21 24 c-11 13 -38 46 -61 72 -23 27 -41 55 -41 63
0 14 47 71 115 139 62 63 115 82 134 48 14 -25 24 -10 16 25 -6 29 -26 42 -68
42 -25 0 -88 -45 -180 -130 l-77 -72 -33 29 c-17 15 -81 78 -142 140 -99 100
-155 142 -155 115z m382 -430 c35 -35 72 -81 87 -109 10 -19 6 -33 -23 -90
-37 -74 -96 -243 -117 -335 -6 -32 -17 -58 -23 -58 -15 0 -146 65 -168 83 -26
21 -23 46 23 181 59 173 153 356 182 356 7 0 24 -12 39 -28z"/>
<path d="M6141 5876 c-15 -18 -6 -40 22 -54 48 -24 219 -83 230 -79 20 6 -41
54 -123 96 -100 50 -115 55 -129 37z"/>
<path d="M3155 5861 c7 -22 -32 -57 -74 -68 -74 -18 -132 -58 -114 -77 14 -13
48 -4 138 39 l94 45 -6 33 c-6 30 -18 47 -36 47 -5 0 -6 -9 -2 -19z"/>
<path d="M3030 5836 c-141 -49 -231 -86 -264 -109 -25 -18 -28 -25 -23 -59 4
-32 2 -40 -16 -50 -94 -50 -292 -200 -306 -231 -1 -4 -12 -17 -23 -27 -11 -10
-18 -24 -16 -30 2 -7 40 22 83 65 113 108 300 230 390 254 22 6 54 22 70 35
27 22 28 25 12 32 -12 4 -36 -2 -68 -20 -27 -14 -56 -26 -64 -26 -30 0 -14 20
36 42 175 79 294 137 297 147 5 15 -1 14 -108 -23z"/>
<path d="M3315 5796 c-128 -59 -165 -83 -165 -103 0 -8 4 -13 8 -11 60 25 282
141 292 153 23 28 -19 16 -135 -39z"/>
<path d="M6687 5633 c-19 -18 -1 -50 60 -109 59 -57 86 -74 84 -51 -1 4 -1 20
-1 37 0 56 -113 154 -143 123z"/>
<path d="M7923 5503 c3 -16 13 -65 23 -110 16 -72 17 -88 5 -135 -8 -29 -24
-73 -37 -98 -45 -84 -24 -115 28 -43 74 102 79 116 79 202 0 82 -21 152 -58
193 -25 28 -46 23 -40 -9z"/>
<path d="M6511 5507 c-20 -20 -12 -37 32 -64 24 -14 59 -48 78 -75 53 -76 70
-91 87 -74 12 11 9 22 -19 72 -42 77 -65 101 -120 129 -35 18 -49 21 -58 12z"/>
<path d="M7796 5361 c-3 -4 -4 -55 -2 -112 1 -57 0 -131 -4 -164 -8 -62 1 -88
21 -68 30 30 52 290 29 334 -11 20 -35 25 -44 10z"/>
<path d="M6780 5224 c0 -14 5 -35 11 -46 6 -11 14 -58 19 -104 4 -47 10 -88
14 -91 17 -17 26 22 27 118 1 116 -10 149 -48 149 -18 0 -23 -6 -23 -26z"/>
<path d="M2085 5019 c-22 -11 -69 -50 -105 -85 -36 -35 -69 -64 -73 -64 -4 0
-7 13 -7 28 0 34 -16 52 -47 52 -81 0 -393 -304 -393 -382 0 -35 29 -17 73 45
57 80 273 277 304 277 8 0 13 -12 13 -27 0 -31 -41 -127 -59 -137 -16 -10 -14
-46 3 -46 8 0 72 61 142 135 71 75 150 149 177 165 50 31 57 44 31 54 -20 8
-13 9 -59 -15z"/>
<path d="M6844 4946 c-3 -8 4 -36 15 -62 37 -83 24 -177 -58 -397 -28 -75 -51
-142 -51 -148 0 -48 82 95 141 246 59 150 42 375 -28 375 -7 0 -16 -6 -19 -14z"/>
<path d="M1614 4367 c-26 -33 -84 -131 -104 -175 -5 -12 -19 -43 -30 -68 -22
-48 -21 -74 4 -74 16 0 36 29 56 80 8 19 35 73 61 120 70 125 78 198 13 117z"/>
<path d="M6550 4265 c-7 -9 -10 -18 -6 -22 7 -8 56 17 56 29 0 14 -37 9 -50
-7z"/>
<path d="M1332 4207 c-26 -27 -101 -195 -109 -241 -5 -34 5 -50 24 -38 5 4 18
32 28 62 10 30 28 73 40 95 13 22 28 56 33 75 5 19 13 43 17 53 10 24 -7 21
-33 -6z"/>
<path d="M2053 4038 c-13 -18 -33 -91 -39 -141 -2 -23 -9 -64 -15 -92 -5 -27
-12 -58 -14 -67 -2 -10 1 -18 6 -18 10 0 27 58 39 136 5 30 21 81 36 113 24
55 26 81 5 81 -5 0 -13 -6 -18 -12z"/>
<path d="M1857 3988 c-8 -13 -19 -32 -25 -43 -10 -17 -11 -18 -12 -2 0 22 -19
21 -50 -3 -19 -14 -22 -22 -14 -30 9 -9 17 -9 34 0 12 6 24 10 26 7 2 -2 -3
-62 -11 -133 -25 -211 -15 -333 28 -372 19 -16 20 -16 14 8 -11 49 -19 228
-11 241 5 8 10 52 10 99 1 58 8 104 23 145 11 32 21 67 21 77 0 27 -18 31 -33
6z"/>
<path d="M1303 3928 c-24 -27 -53 -83 -94 -188 -37 -91 -50 -223 -26 -254 23
-31 34 -11 40 71 5 87 36 192 78 268 29 54 47 125 32 125 -5 0 -19 -10 -30
-22z"/>
<path d="M1688 3903 c-6 -16 -12 -71 -12 -123 -1 -98 13 -140 51 -154 27 -11
33 5 13 32 -11 15 -24 52 -29 83 -9 51 -7 74 14 167 8 33 -23 29 -37 -5z"/>
<path d="M1421 3901 c-12 -12 -21 -29 -21 -39 0 -10 -9 -43 -20 -74 -21 -61
-37 -201 -26 -242 5 -19 13 -26 31 -26 24 0 35 23 17 34 -14 8 7 133 38 231
29 91 33 126 12 133 -6 2 -20 -6 -31 -17z"/>
<path d="M1105 3880 c-11 -21 -15 -62 -15 -154 0 -131 7 -169 35 -180 26 -9
35 2 25 29 -10 27 -14 132 -8 257 3 85 -9 102 -37 48z"/>
<path d="M1530 3791 c-9 -24 -9 -46 0 -103 13 -78 31 -118 55 -118 19 0 19 20
0 47 -12 17 -13 28 -4 50 7 20 7 45 -1 90 -13 69 -30 81 -50 34z"/>
<path d="M1653 3534 c-24 -24 -25 -30 -19 -87 7 -65 24 -97 69 -131 34 -25 56
-10 30 20 -34 38 -43 64 -43 124 0 49 3 61 20 70 28 15 25 30 -5 30 -14 0 -37
-12 -52 -26z"/>
<path d="M1481 3512 c-38 -71 35 -253 121 -301 38 -21 47 -6 16 27 -36 38 -82
136 -97 207 -18 81 -25 94 -40 67z"/>
<path d="M1260 3367 c0 -89 105 -197 162 -166 22 12 22 13 -20 30 -44 19 -73
57 -102 133 -22 57 -40 58 -40 3z"/>
<path d="M1149 3304 c-11 -30 -6 -49 26 -114 13 -25 31 -62 40 -83 10 -21 45
-67 79 -102 79 -83 151 -118 242 -116 60 1 64 -1 64 -22 0 -26 72 -75 149
-102 57 -20 181 -31 181 -15 0 6 -6 12 -12 14 -137 40 -224 78 -274 119 -19
15 -54 28 -100 36 -157 27 -263 128 -319 301 -20 61 -45 110 -57 110 -5 0 -13
-12 -19 -26z"/>
<path d="M1876 3234 c-8 -21 -9 -18 14 -44 23 -27 34 -30 108 -37 33 -3 58 0
67 7 21 18 9 30 -30 30 -43 0 -112 27 -119 46 -7 19 -32 18 -40 -2z"/>
<path d="M1820 3163 c0 -25 81 -74 133 -80 23 -3 49 -12 57 -19 35 -30 182
-45 223 -22 19 10 13 13 -57 24 -44 7 -96 19 -115 27 -20 8 -61 22 -91 32 -30
9 -67 26 -82 36 -34 24 -68 25 -68 2z"/>
<path d="M1523 3153 c-4 -11 7 -28 38 -55 24 -22 49 -44 54 -49 6 -6 21 -22
35 -36 40 -40 98 -65 142 -61 34 3 44 -1 79 -34 74 -70 154 -95 224 -68 35 13
23 30 -21 30 -44 0 -87 18 -150 63 -32 22 -72 39 -113 48 -62 13 -96 39 -52
39 39 0 21 16 -31 30 -58 14 -84 28 -142 77 -45 37 -54 40 -63 16z"/>
<path d="M6470 2923 c-26 -58 -37 -109 -23 -100 12 8 57 136 50 144 -3 2 -15
-17 -27 -44z"/>
<path d="M2119 2944 c-14 -17 39 -57 66 -49 11 4 50 14 87 22 53 13 66 19 57
29 -13 16 -196 14 -210 -2z"/>
<path d="M2235 2850 c-1 -3 1 -15 6 -27 7 -19 16 -23 54 -23 44 0 125 31 125
49 0 8 -180 10 -185 1z"/>
<path d="M6411 2793 c0 -7 -15 -42 -32 -78 -18 -36 -29 -69 -25 -72 9 -10 23
13 38 62 7 22 16 43 21 46 5 4 7 17 4 30 -2 13 -5 19 -6 12z"/>
<path d="M2252 2729 c2 -20 12 -26 63 -37 47 -11 68 -11 100 -1 22 6 46 13 53
15 8 2 12 9 10 16 -3 8 -29 13 -74 13 -38 1 -89 5 -112 10 -42 8 -44 7 -40
-16z"/>
<path d="M1210 2709 c0 -11 5 -17 10 -14 6 3 10 13 10 21 0 8 -4 14 -10 14 -5
0 -10 -9 -10 -21z"/>
<path d="M6321 2585 c-13 -27 -29 -68 -37 -90 -8 -22 -18 -49 -23 -60 -13 -27
-71 -177 -71 -181 0 -2 4 -4 9 -4 5 0 14 15 21 33 7 17 16 41 21 52 5 11 15
38 23 60 7 22 30 80 50 129 39 94 45 145 7 61z"/>
<path d="M5831 2524 c-17 -36 -31 -71 -31 -76 0 -5 -6 -15 -13 -22 -7 -7 -26
-53 -42 -102 -17 -49 -33 -91 -37 -94 -4 -3 -14 -24 -22 -45 -8 -22 -21 -57
-30 -77 -10 -23 -12 -38 -6 -38 10 0 15 9 47 90 7 19 22 52 33 72 11 20 20 43
20 51 0 13 37 103 102 249 33 74 14 67 -21 -8z"/>
<path d="M6447 2560 c-21 -49 -29 -80 -22 -80 9 0 46 92 41 104 -2 6 -10 -5
-19 -24z"/>
<path d="M5701 2518 c-7 -18 -18 -42 -24 -53 -34 -63 -67 -139 -64 -148 4 -12
54 73 82 138 9 22 21 48 27 59 6 11 6 22 0 28 -6 6 -14 -3 -21 -24z"/>
<path d="M5912 2432 c-18 -45 -32 -85 -32 -91 0 -5 -7 -22 -15 -38 -29 -57
-65 -146 -65 -162 0 -9 -4 -21 -10 -27 -5 -5 -11 -18 -13 -29 -2 -11 -12 -38
-24 -60 -11 -22 -24 -56 -28 -75 -4 -19 -11 -37 -15 -40 -9 -6 -59 -125 -67
-157 -3 -13 -8 -23 -12 -23 -4 0 -15 -24 -25 -52 -11 -29 -23 -57 -27 -63 -13
-14 -11 -25 6 -25 8 0 15 7 15 15 0 14 14 50 50 130 11 22 27 60 38 85 11 25
27 61 36 82 9 20 16 41 16 47 0 6 18 49 40 95 22 46 40 90 40 99 0 9 5 19 10
22 6 3 10 15 10 25 0 11 8 34 18 52 10 18 26 60 36 93 10 33 27 82 37 108 11
27 19 53 17 59 -2 6 -18 -25 -36 -70z"/>
<path d="M6391 2432 c-8 -18 -11 -35 -8 -38 8 -9 29 35 25 54 -2 12 -8 7 -17
-16z"/>
<path d="M6364 2359 c-18 -25 -54 -116 -79 -199 -9 -30 -21 -64 -26 -75 -12
-26 -59 -177 -59 -190 0 -24 29 25 39 65 23 97 103 324 129 367 16 26 12 54
-4 32z"/>
<path d="M5509 2263 c-25 -55 -28 -62 -50 -94 -19 -28 -32 -99 -18 -99 5 0 9
12 9 26 0 29 13 57 46 97 13 16 24 37 24 47 0 9 7 23 15 30 17 14 20 40 5 40
-6 0 -20 -21 -31 -47z"/>
<path d="M5577 2249 c-10 -24 -22 -51 -27 -59 -21 -34 -59 -117 -65 -142 -12
-47 10 -31 24 18 7 25 19 51 26 58 25 25 66 118 63 143 -3 24 -5 22 -21 -18z"/>
<path d="M6013 2263 c-18 -49 -96 -247 -113 -288 -10 -22 -21 -50 -24 -62 -4
-12 -22 -53 -41 -92 -19 -40 -35 -75 -35 -80 0 -4 -13 -38 -30 -74 -26 -58
-72 -109 -85 -95 -5 4 49 163 78 232 10 21 17 44 17 50 0 6 7 22 16 34 13 19
13 22 0 22 -8 0 -18 -10 -21 -22 -11 -37 -54 -134 -112 -257 l-53 -114 -35 6
c-27 5 -36 1 -49 -17 -8 -13 -29 -29 -48 -36 -18 -8 -46 -25 -63 -38 -29 -25
-30 -25 -33 -4 -2 11 6 40 17 63 12 24 21 46 21 50 0 5 23 56 50 114 28 58 50
113 50 121 0 7 5 14 10 14 6 0 15 12 20 26 6 15 19 39 30 54 23 32 26 50 8 50
-13 -1 -72 -116 -164 -315 -25 -55 -64 -137 -86 -183 -31 -62 -38 -86 -30 -94
9 -9 15 -7 26 7 12 16 16 17 29 6 14 -11 21 -9 49 12 39 29 68 40 68 27 0 -18
28 -10 33 10 3 12 35 34 92 60 82 39 87 41 100 24 12 -17 15 -16 35 19 13 22
40 47 64 59 22 11 60 34 84 50 24 17 46 27 49 24 3 -3 -5 -31 -19 -63 -26 -62
-29 -82 -13 -84 12 -2 63 117 64 150 1 15 17 39 43 63 37 34 39 38 19 38 -25
0 -23 17 10 80 25 49 43 92 75 185 15 44 31 85 34 90 9 12 50 128 50 140 0 23
-25 -20 -45 -77 -26 -74 -116 -298 -154 -381 -25 -56 -29 -60 -111 -103 -78
-40 -110 -52 -110 -39 0 3 18 49 41 102 22 54 52 127 65 163 14 36 33 84 44
107 11 24 20 47 20 52 0 4 14 41 30 81 17 40 30 81 30 90 0 10 7 23 15 30 16
14 20 40 6 40 -5 0 -13 -12 -18 -27z"/>
<path d="M5608 1995 c-24 -51 -24 -81 0 -52 11 12 34 99 28 104 -1 2 -14 -22
-28 -52z"/>
<path d="M5346 1939 c-16 -35 -44 -95 -61 -134 -18 -38 -43 -95 -56 -125 -12
-30 -26 -59 -30 -65 -16 -23 -111 -277 -105 -283 10 -10 31 20 45 63 13 41 20
60 39 105 6 14 14 36 17 50 7 24 23 60 105 235 66 142 82 182 79 200 -3 11
-15 -6 -33 -46z"/>
<path d="M5464 1992 c-6 -4 -24 -38 -39 -77 -15 -38 -38 -91 -51 -117 -28 -56
-29 -58 -9 -58 8 0 15 6 15 13 0 8 16 46 35 86 19 39 35 76 35 82 0 5 7 21 16
34 17 26 16 49 -2 37z"/>
<path d="M5800 1940 c0 -11 2 -20 4 -20 2 0 6 9 9 20 3 11 1 20 -4 20 -5 0 -9
-9 -9 -20z"/>
<path d="M5318 1673 c-15 -32 -38 -82 -52 -110 -14 -31 -21 -55 -15 -58 5 -4
16 11 24 32 9 21 20 45 25 53 28 45 59 125 52 132 -5 5 -20 -17 -34 -49z"/>
<path d="M3794 1665 c-9 -22 2 -32 41 -39 55 -11 172 -50 255 -86 137 -59 185
-77 235 -90 131 -32 273 -88 308 -121 30 -28 102 -35 145 -15 26 13 32 20 24
28 -8 8 -18 8 -35 1 -15 -7 -29 -8 -41 -1 -9 5 -24 7 -33 4 -10 -4 -31 5 -52
22 -62 48 -103 69 -201 101 -52 16 -115 36 -140 44 -46 15 -131 49 -232 93
-72 31 -214 74 -245 74 -13 0 -26 -7 -29 -15z"/>
<path d="M5560 1549 c0 -11 5 -17 10 -14 6 3 10 13 10 21 0 8 -4 14 -10 14 -5
0 -10 -9 -10 -21z"/>
<path d="M5215 1451 c-6 -11 9 -23 19 -14 9 9 7 23 -3 23 -6 0 -12 -4 -16 -9z"/>
<path d="M5187 1368 c-10 -24 -17 -49 -17 -56 0 -16 20 -16 24 1 2 6 8 28 14
47 17 51 -2 58 -21 8z"/>
<path d="M5987 1373 c-4 -3 -7 -11 -7 -17 0 -6 5 -5 12 2 6 6 9 14 7 17 -3 3
-9 2 -12 -2z"/>
<path d="M4987 1203 c-7 -13 -35 -135 -42 -183 -8 -54 8 -191 34 -292 26 -107
105 -263 192 -382 4 -5 15 -6 24 -2 15 5 15 9 -4 35 -40 55 -114 215 -143 306
-17 56 -48 247 -48 301 0 30 8 85 19 122 13 46 16 74 9 85 -9 17 -33 23 -41
10z"/>
<path d="M6074 1076 c-51 -24 -71 -46 -109 -119 -10 -22 -62 -78 -114 -125
-52 -48 -123 -115 -159 -149 -35 -35 -73 -63 -83 -63 -12 0 -26 -15 -39 -39
-22 -43 -54 -71 -83 -71 -47 0 -100 -51 -65 -62 25 -9 114 33 145 68 30 34 34
36 64 25 39 -13 168 -14 189 -1 18 11 8 23 -23 26 -12 1 -31 5 -42 7 -11 3
-32 6 -47 6 -36 1 -36 20 1 55 20 19 37 27 50 23 28 -7 103 13 98 27 -2 6 -16
12 -30 14 -15 2 -27 7 -27 10 0 4 34 41 75 82 42 41 92 99 112 128 40 57 55
62 30 9 -17 -34 -78 -270 -95 -367 -6 -30 -6 -59 -2 -64 13 -13 47 50 60 108
39 182 90 321 146 403 58 84 37 111 -52 69z"/>
<path d="M4030 930 c0 -5 14 -31 30 -57 17 -26 30 -59 30 -74 0 -16 25 -63 65
-122 36 -53 65 -100 65 -104 0 -24 81 -85 136 -103 67 -23 99 -51 175 -152 50
-66 51 -66 82 -56 37 12 87 56 87 75 0 19 -19 16 -38 -6 -10 -10 -28 -21 -43
-25 -20 -4 -28 0 -42 23 -22 37 -21 46 1 48 32 3 94 45 83 56 -7 7 -18 7 -36
-1 -14 -7 -36 -12 -48 -12 -13 0 -28 -5 -34 -11 -7 -7 -17 -1 -34 23 -13 18
-27 35 -31 36 -16 7 -7 21 27 48 35 26 36 26 78 10 24 -9 59 -33 79 -54 46
-47 177 -118 203 -109 17 7 17 9 1 26 -9 10 -40 31 -69 46 -28 16 -74 47 -101
69 -50 42 -109 76 -255 146 -46 23 -122 67 -170 98 -48 31 -96 62 -107 68 -10
6 -25 24 -33 40 -19 41 -62 84 -83 84 -10 0 -18 -4 -18 -10z m234 -235 c36
-25 104 -64 151 -86 78 -38 105 -64 73 -73 -7 -2 -28 -8 -47 -14 -50 -17 -114
2 -147 42 -25 29 -114 165 -114 172 0 11 25 -1 84 -41z"/>
<path d="M3885 320 c-11 -18 -18 -140 -8 -140 12 0 33 75 33 119 0 30 -13 41
-25 21z"/>
<path d="M7080 95 c0 -8 5 -15 10 -15 6 0 10 7 10 15 0 8 -4 15 -10 15 -5 0
-10 -7 -10 -15z"/>
</g>
</svg>
